<svg width="4000" height="2000" viewBox="0 0 4000 2000" fill="none" xmlns="http://www.w3.org/2000/svg">
<g clip-path="url(#clip0_1_5)">
<path d="M2087 998L1943 808L1829 920L2087 998Z" fill="#B40909" stroke="#B40909" stroke-linejoin="bevel"/>
<path d="M1943 808L1781 702L1829 920L1943 808Z" fill="#B40909" stroke="#B40909" stroke-linejoin="bevel"/>
<path d="M2087 998L2208 709L1943 808L2087 998Z" fill="#361A1A" stroke="#361A1A" stroke-linejoin="bevel"/>
<path d="M1943 808L1965 446L1781 702L1943 808Z" fill="#AB0303" stroke="#AB0303" stroke-linejoin="bevel"/>
<path d="M1829 920L2007 1316L2087 998L1829 920Z" fill="#5A0000" stroke="#5A0000" stroke-linejoin="bevel"/>
<path d="M2087 998L2337 1062L2208 709L2087 998Z" fill="#7B0707" stroke="#7B0707" stroke-linejoin="bevel"/>
<path d="M2223 1263L2337 1062L2087 998L2223 1263Z" fill="#AB0303" stroke="#AB0303" stroke-linejoin="bevel"/>
<path d="M2007 1316L2223 1263L2087 998L2007 1316Z" fill="#7B0707" stroke="#7B0707" stroke-linejoin="bevel"/>
<path d="M1486 1052L1708 1291L1829 920L1486 1052Z" fill="#9F0D0D" stroke="#9F0D0D" stroke-linejoin="bevel"/>
<path d="M1829 920L1708 1291L2007 1316L1829 920Z" fill="#ED0000" stroke="#ED0000" stroke-linejoin="bevel"/>
<path d="M1965 446L1705 566L1781 702L1965 446Z" fill="#5A0000" stroke="#5A0000" stroke-linejoin="bevel"/>
<path d="M1412 831L1486 1052L1829 920L1412 831Z" fill="#ED0000" stroke="#ED0000" stroke-linejoin="bevel"/>
<path d="M1412 831L1829 920L1781 702L1412 831Z" fill="#ED0000" stroke="#ED0000" stroke-linejoin="bevel"/>
<path d="M2208 709L1965 446L1943 808L2208 709Z" fill="#B50202" stroke="#B50202" stroke-linejoin="bevel"/>
<path d="M1474 1250L1720 1416L1708 1291L1474 1250Z" fill="#AB0303" stroke="#AB0303" stroke-linejoin="bevel"/>
<path d="M1708 1291L1720 1416L2007 1316L1708 1291Z" fill="#5A0000" stroke="#5A0000" stroke-linejoin="bevel"/>
<path d="M2280 1547L2435 1322L2223 1263L2280 1547Z" fill="#AB0303" stroke="#AB0303" stroke-linejoin="bevel"/>
<path d="M1705 566L1412 831L1781 702L1705 566Z" fill="#9F0D0D" stroke="#9F0D0D" stroke-linejoin="bevel"/>
<path d="M1311 1332L1474 1250L1486 1052L1311 1332Z" fill="#AB0303" stroke="#AB0303" stroke-linejoin="bevel"/>
<path d="M1486 1052L1474 1250L1708 1291L1486 1052Z" fill="#7B0707" stroke="#7B0707" stroke-linejoin="bevel"/>
<path d="M2223 1263L2435 1322L2337 1062L2223 1263Z" fill="#5A0000" stroke="#5A0000" stroke-linejoin="bevel"/>
<path d="M2337 1062L2586 729L2208 709L2337 1062Z" fill="#AB0303" stroke="#AB0303" stroke-linejoin="bevel"/>
<path d="M2070 1544L2223 1263L2007 1316L2070 1544Z" fill="#ED0000" stroke="#ED0000" stroke-linejoin="bevel"/>
<path d="M1720 1416L2070 1544L2007 1316L1720 1416Z" fill="#AB0303" stroke="#AB0303" stroke-linejoin="bevel"/>
<path d="M2435 1322L2557 1086L2337 1062L2435 1322Z" fill="#AB0303" stroke="#AB0303" stroke-linejoin="bevel"/>
<path d="M2208 709L2287 413L1965 446L2208 709Z" fill="#361A1A" stroke="#361A1A" stroke-linejoin="bevel"/>
<path d="M1764 312L1587 454L1705 566L1764 312Z" fill="#AB0303" stroke="#AB0303" stroke-linejoin="bevel"/>
<path d="M1705 566L1587 454L1412 831L1705 566Z" fill="#AB0303" stroke="#AB0303" stroke-linejoin="bevel"/>
<path d="M2581 535L2287 413L2208 709L2581 535Z" fill="#3D0707" stroke="#3D0707" stroke-linejoin="bevel"/>
<path d="M1965 446L1764 312L1705 566L1965 446Z" fill="#B40909" stroke="#B40909" stroke-linejoin="bevel"/>
<path d="M2253 211L1917 296L1965 446L2253 211Z" fill="#AB0303" stroke="#AB0303" stroke-linejoin="bevel"/>
<path d="M2673 917L2586 729L2337 1062L2673 917Z" fill="#3D0707" stroke="#3D0707" stroke-linejoin="bevel"/>
<path d="M1917 296L1764 312L1965 446L1917 296Z" fill="#3D0707" stroke="#3D0707" stroke-linejoin="bevel"/>
<path d="M2070 1544L2280 1547L2223 1263L2070 1544Z" fill="#7B0707" stroke="#7B0707" stroke-linejoin="bevel"/>
<path d="M2807 1298L2673 917L2557 1086L2807 1298Z" fill="#9F0D0D" stroke="#9F0D0D" stroke-linejoin="bevel"/>
<path d="M2557 1086L2673 917L2337 1062L2557 1086Z" fill="#B40909" stroke="#B40909" stroke-linejoin="bevel"/>
<path d="M1587 454L1258 719L1412 831L1587 454Z" fill="#361A1A" stroke="#361A1A" stroke-linejoin="bevel"/>
<path d="M1197 966L1311 1332L1486 1052L1197 966Z" fill="#361A1A" stroke="#361A1A" stroke-linejoin="bevel"/>
<path d="M2728 702L2581 535L2586 729L2728 702Z" fill="#3D0707" stroke="#3D0707" stroke-linejoin="bevel"/>
<path d="M2586 729L2581 535L2208 709L2586 729Z" fill="#7B0707" stroke="#7B0707" stroke-linejoin="bevel"/>
<path d="M1197 966L1486 1052L1412 831L1197 966Z" fill="#B40909" stroke="#B40909" stroke-linejoin="bevel"/>
<path d="M1474 1250L1430 1524L1720 1416L1474 1250Z" fill="#9F0D0D" stroke="#9F0D0D" stroke-linejoin="bevel"/>
<path d="M1790 1761L2022 1764L2070 1544L1790 1761Z" fill="#3D0707" stroke="#3D0707" stroke-linejoin="bevel"/>
<path d="M1258 719L1197 966L1412 831L1258 719Z" fill="#361A1A" stroke="#361A1A" stroke-linejoin="bevel"/>
<path d="M2412 278L2253 211L2287 413L2412 278Z" fill="#AB0303" stroke="#AB0303" stroke-linejoin="bevel"/>
<path d="M2287 413L2253 211L1965 446L2287 413Z" fill="#7B0707" stroke="#7B0707" stroke-linejoin="bevel"/>
<path d="M1720 0L1541 214L1764 312L1720 0Z" fill="#AB0303" stroke="#AB0303" stroke-linejoin="bevel"/>
<path d="M1311 1332L1430 1524L1474 1250L1311 1332Z" fill="#7B0707" stroke="#7B0707" stroke-linejoin="bevel"/>
<path d="M2419 1703L2478 1550L2280 1547L2419 1703Z" fill="#B40909" stroke="#B40909" stroke-linejoin="bevel"/>
<path d="M2280 1547L2478 1550L2435 1322L2280 1547Z" fill="#3D0707" stroke="#3D0707" stroke-linejoin="bevel"/>
<path d="M2435 1322L2807 1298L2557 1086L2435 1322Z" fill="#AB0303" stroke="#AB0303" stroke-linejoin="bevel"/>
<path d="M2673 917L2728 702L2586 729L2673 917Z" fill="#3D0707" stroke="#3D0707" stroke-linejoin="bevel"/>
<path d="M2581 535L2412 278L2287 413L2581 535Z" fill="#7B0707" stroke="#7B0707" stroke-linejoin="bevel"/>
<path d="M2674 467L2412 278L2581 535L2674 467Z" fill="#ED0000" stroke="#ED0000" stroke-linejoin="bevel"/>
<path d="M1430 1524L1581 1671L1720 1416L1430 1524Z" fill="#ED0000" stroke="#ED0000" stroke-linejoin="bevel"/>
<path d="M2070 1544L2022 1764L2280 1547L2070 1544Z" fill="#AB0303" stroke="#AB0303" stroke-linejoin="bevel"/>
<path d="M1790 1761L2070 1544L1720 1416L1790 1761Z" fill="#B40909" stroke="#B40909" stroke-linejoin="bevel"/>
<path d="M1581 1671L1790 1761L1720 1416L1581 1671Z" fill="#ED0000" stroke="#ED0000" stroke-linejoin="bevel"/>
<path d="M1720 0L1764 312L1917 296L1720 0Z" fill="#3D0707" stroke="#3D0707" stroke-linejoin="bevel"/>
<path d="M1764 312L1541 214L1587 454L1764 312Z" fill="#AB0303" stroke="#AB0303" stroke-linejoin="bevel"/>
<path d="M1587 454L1187 442L1258 719L1587 454Z" fill="#AB0303" stroke="#AB0303" stroke-linejoin="bevel"/>
<path d="M2728 702L2674 467L2581 535L2728 702Z" fill="#5A0000" stroke="#5A0000" stroke-linejoin="bevel"/>
<path d="M2331 1764L2419 1703L2280 1547L2331 1764Z" fill="#AB0303" stroke="#AB0303" stroke-linejoin="bevel"/>
<path d="M2022 1764H2331L2280 1547L2022 1764Z" fill="#B50202" stroke="#B50202" stroke-linejoin="bevel"/>
<path d="M1311 1332L1284 1553L1430 1524L1311 1332Z" fill="#ED0000" stroke="#ED0000" stroke-linejoin="bevel"/>
<path d="M1430 1524L1284 1553L1581 1671L1430 1524Z" fill="#361A1A" stroke="#361A1A" stroke-linejoin="bevel"/>
<path d="M1772 2000H1996L1790 1761L1772 2000Z" fill="#B50202" stroke="#B50202" stroke-linejoin="bevel"/>
<path d="M1002 1578L1284 1553L1311 1332L1002 1578Z" fill="#361A1A" stroke="#361A1A" stroke-linejoin="bevel"/>
<path d="M2782 1433L2435 1322L2478 1550L2782 1433Z" fill="#AB0303" stroke="#AB0303" stroke-linejoin="bevel"/>
<path d="M2782 1433L2807 1298L2435 1322L2782 1433Z" fill="#3D0707" stroke="#3D0707" stroke-linejoin="bevel"/>
<path d="M2673 917L3038 812L2728 702L2673 917Z" fill="#AB0303" stroke="#AB0303" stroke-linejoin="bevel"/>
<path d="M1541 214L1187 442L1587 454L1541 214Z" fill="#7B0707" stroke="#7B0707" stroke-linejoin="bevel"/>
<path d="M980 690L982 947L1197 966L980 690Z" fill="#9F0D0D" stroke="#9F0D0D" stroke-linejoin="bevel"/>
<path d="M2333 0H1965L2253 211L2333 0Z" fill="#3D0707" stroke="#3D0707" stroke-linejoin="bevel"/>
<path d="M2253 211L1965 0L1917 296L2253 211Z" fill="#B50202" stroke="#B50202" stroke-linejoin="bevel"/>
<path d="M2836 1733L2782 1433L2478 1550L2836 1733Z" fill="#5A0000" stroke="#5A0000" stroke-linejoin="bevel"/>
<path d="M1187 442L1079 557L1258 719L1187 442Z" fill="#AB0303" stroke="#AB0303" stroke-linejoin="bevel"/>
<path d="M1197 966L975 1188L1311 1332L1197 966Z" fill="#AB0303" stroke="#AB0303" stroke-linejoin="bevel"/>
<path d="M1965 0H1720L1917 296L1965 0Z" fill="#B50202" stroke="#B50202" stroke-linejoin="bevel"/>
<path d="M1541 214L1207 175L1187 442L1541 214Z" fill="#3D0707" stroke="#3D0707" stroke-linejoin="bevel"/>
<path d="M980 690L1197 966L1258 719L980 690Z" fill="#AB0303" stroke="#AB0303" stroke-linejoin="bevel"/>
<path d="M2965 1420L2936 1220L2807 1298L2965 1420Z" fill="#3D0707" stroke="#3D0707" stroke-linejoin="bevel"/>
<path d="M2807 1298L2936 1220L2673 917L2807 1298Z" fill="#AB0303" stroke="#AB0303" stroke-linejoin="bevel"/>
<path d="M3024 549L2750 228L2674 467L3024 549Z" fill="#AB0303" stroke="#AB0303" stroke-linejoin="bevel"/>
<path d="M2415 0L2253 211L2412 278L2415 0Z" fill="#AB0303" stroke="#AB0303" stroke-linejoin="bevel"/>
<path d="M2415 0H2333L2253 211L2415 0Z" fill="#AB0303" stroke="#AB0303" stroke-linejoin="bevel"/>
<path d="M1079 557L980 690L1258 719L1079 557Z" fill="#AB0303" stroke="#AB0303" stroke-linejoin="bevel"/>
<path d="M806 1080L975 1188L982 947L806 1080Z" fill="#AB0303" stroke="#AB0303" stroke-linejoin="bevel"/>
<path d="M982 947L975 1188L1197 966L982 947Z" fill="#7B0707" stroke="#7B0707" stroke-linejoin="bevel"/>
<path d="M2750 228L2415 0L2412 278L2750 228Z" fill="#B50202" stroke="#B50202" stroke-linejoin="bevel"/>
<path d="M1790 1761L1996 2000L2022 1764L1790 1761Z" fill="#9F0D0D" stroke="#9F0D0D" stroke-linejoin="bevel"/>
<path d="M2022 1764L2211 2000L2331 1764H2022Z" fill="#361A1A" stroke="#361A1A" stroke-linejoin="bevel"/>
<path d="M2331 1764L2520 2000L2419 1703L2331 1764Z" fill="#9F0D0D" stroke="#9F0D0D" stroke-linejoin="bevel"/>
<path d="M1772 2000L1790 1761L1482 2000H1772Z" fill="#7B0707" stroke="#7B0707" stroke-linejoin="bevel"/>
<path d="M2674 467L2750 228L2412 278L2674 467Z" fill="#AB0303" stroke="#AB0303" stroke-linejoin="bevel"/>
<path d="M3024 549L2674 467L2728 702L3024 549Z" fill="#AB0303" stroke="#AB0303" stroke-linejoin="bevel"/>
<path d="M1482 2000L1790 1761L1581 1671L1482 2000Z" fill="#9F0D0D" stroke="#9F0D0D" stroke-linejoin="bevel"/>
<path d="M1427 0L1207 175L1541 214L1427 0Z" fill="#B50202" stroke="#B50202" stroke-linejoin="bevel"/>
<path d="M1187 442L1041 301L1079 557L1187 442Z" fill="#AB0303" stroke="#AB0303" stroke-linejoin="bevel"/>
<path d="M742 508V690H980L742 508Z" fill="#B40909" stroke="#B40909" stroke-linejoin="bevel"/>
<path d="M3057 961L3038 812L2673 917L3057 961Z" fill="#3D0707" stroke="#3D0707" stroke-linejoin="bevel"/>
<path d="M1720 0H1427L1541 214L1720 0Z" fill="#AB0303" stroke="#AB0303" stroke-linejoin="bevel"/>
<path d="M1996 2000H2211L2022 1764L1996 2000Z" fill="#ED0000" stroke="#ED0000" stroke-linejoin="bevel"/>
<path d="M2836 1733L2965 1420L2782 1433L2836 1733Z" fill="#ED0000" stroke="#ED0000" stroke-linejoin="bevel"/>
<path d="M2936 1220L3057 961L2673 917L2936 1220Z" fill="#5A0000" stroke="#5A0000" stroke-linejoin="bevel"/>
<path d="M2782 1433L2965 1420L2807 1298L2782 1433Z" fill="#B50202" stroke="#B50202" stroke-linejoin="bevel"/>
<path d="M2936 1220L3169 1044L3057 961L2936 1220Z" fill="#361A1A" stroke="#361A1A" stroke-linejoin="bevel"/>
<path d="M2836 1733L2478 1550L2419 1703L2836 1733Z" fill="#B40909" stroke="#B40909" stroke-linejoin="bevel"/>
<path d="M997 0L1041 301L1207 175L997 0Z" fill="#B40909" stroke="#B40909" stroke-linejoin="bevel"/>
<path d="M1207 175L1041 301L1187 442L1207 175Z" fill="#3D0707" stroke="#3D0707" stroke-linejoin="bevel"/>
<path d="M3244 682L3024 549L3038 812L3244 682Z" fill="#ED0000" stroke="#ED0000" stroke-linejoin="bevel"/>
<path d="M3038 812L3024 549L2728 702L3038 812Z" fill="#3D0707" stroke="#3D0707" stroke-linejoin="bevel"/>
<path d="M1002 1578L1201 1793L1284 1553L1002 1578Z" fill="#ED0000" stroke="#ED0000" stroke-linejoin="bevel"/>
<path d="M1284 1553L1201 1793L1581 1671L1284 1553Z" fill="#AB0303" stroke="#AB0303" stroke-linejoin="bevel"/>
<path d="M975 1188L1002 1578L1311 1332L975 1188Z" fill="#361A1A" stroke="#361A1A" stroke-linejoin="bevel"/>
<path d="M1201 1793L1482 2000L1581 1671L1201 1793Z" fill="#7B0707" stroke="#7B0707" stroke-linejoin="bevel"/>
<path d="M742 690L806 1080L982 947L742 690Z" fill="#361A1A" stroke="#361A1A" stroke-linejoin="bevel"/>
<path d="M975 1188L827 1580L1002 1578L975 1188Z" fill="#B50202" stroke="#B50202" stroke-linejoin="bevel"/>
<path d="M742 690L982 947L980 690H742Z" fill="#5A0000" stroke="#5A0000" stroke-linejoin="bevel"/>
<path d="M2674 2000L2836 1733L2419 1703L2674 2000Z" fill="#ED0000" stroke="#ED0000" stroke-linejoin="bevel"/>
<path d="M1427 0H1251L1207 175L1427 0Z" fill="#ED0000" stroke="#ED0000" stroke-linejoin="bevel"/>
<path d="M2211 2000H2520L2331 1764L2211 2000Z" fill="#AB0303" stroke="#AB0303" stroke-linejoin="bevel"/>
<path d="M3259 1274L3169 1044L2936 1220L3259 1274Z" fill="#B50202" stroke="#B50202" stroke-linejoin="bevel"/>
<path d="M3057 961L3169 1044L3038 812L3057 961Z" fill="#B50202" stroke="#B50202" stroke-linejoin="bevel"/>
<path d="M3259 1274L2936 1220L2965 1420L3259 1274Z" fill="#9F0D0D" stroke="#9F0D0D" stroke-linejoin="bevel"/>
<path d="M2968 0H2726L2750 228L2968 0Z" fill="#AB0303" stroke="#AB0303" stroke-linejoin="bevel"/>
<path d="M2750 228L2726 0H2415L2750 228Z" fill="#361A1A" stroke="#361A1A" stroke-linejoin="bevel"/>
<path d="M1201 1793L1303 2000H1482L1201 1793Z" fill="#5A0000" stroke="#5A0000" stroke-linejoin="bevel"/>
<path d="M1088 2000H1303L1201 1793L1088 2000Z" fill="#9F0D0D" stroke="#9F0D0D" stroke-linejoin="bevel"/>
<path d="M742 508L1079 557L1041 301L742 508Z" fill="#AB0303" stroke="#AB0303" stroke-linejoin="bevel"/>
<path d="M742 508L980 690L1079 557L742 508Z" fill="#9F0D0D" stroke="#9F0D0D" stroke-linejoin="bevel"/>
<path d="M3317 563L3077 327L3024 549L3317 563Z" fill="#AB0303" stroke="#AB0303" stroke-linejoin="bevel"/>
<path d="M3024 549L3077 327L2750 228L3024 549Z" fill="#7B0707" stroke="#7B0707" stroke-linejoin="bevel"/>
<path d="M2520 2000H2674L2419 1703L2520 2000Z" fill="#7B0707" stroke="#7B0707" stroke-linejoin="bevel"/>
<path d="M494 939L719 1299L806 1080L494 939Z" fill="#361A1A" stroke="#361A1A" stroke-linejoin="bevel"/>
<path d="M806 1080L719 1299L975 1188L806 1080Z" fill="#5A0000" stroke="#5A0000" stroke-linejoin="bevel"/>
<path d="M1002 1578L919 1794L1201 1793L1002 1578Z" fill="#AB0303" stroke="#AB0303" stroke-linejoin="bevel"/>
<path d="M797 240L742 508L1041 301L797 240Z" fill="#3D0707" stroke="#3D0707" stroke-linejoin="bevel"/>
<path d="M742 690L494 939L806 1080L742 690Z" fill="#AB0303" stroke="#AB0303" stroke-linejoin="bevel"/>
<path d="M719 1299L827 1580L975 1188L719 1299Z" fill="#B50202" stroke="#B50202" stroke-linejoin="bevel"/>
<path d="M3169 1044L3244 682L3038 812L3169 1044Z" fill="#ED0000" stroke="#ED0000" stroke-linejoin="bevel"/>
<path d="M2674 2000L2970 1802L2836 1733L2674 2000Z" fill="#5A0000" stroke="#5A0000" stroke-linejoin="bevel"/>
<path d="M2836 1733L2970 1802L2965 1420L2836 1733Z" fill="#AB0303" stroke="#AB0303" stroke-linejoin="bevel"/>
<path d="M3248 1499L3259 1274L2965 1420L3248 1499Z" fill="#B40909" stroke="#B40909" stroke-linejoin="bevel"/>
<path d="M3169 1044L3476 970L3244 682L3169 1044Z" fill="#AB0303" stroke="#AB0303" stroke-linejoin="bevel"/>
<path d="M827 1580L919 1794L1002 1578L827 1580Z" fill="#9F0D0D" stroke="#9F0D0D" stroke-linejoin="bevel"/>
<path d="M1251 0H997L1207 175L1251 0Z" fill="#5A0000" stroke="#5A0000" stroke-linejoin="bevel"/>
<path d="M997 0L797 240L1041 301L997 0Z" fill="#3D0707" stroke="#3D0707" stroke-linejoin="bevel"/>
<path d="M919 1794L1088 2000L1201 1793L919 1794Z" fill="#AB0303" stroke="#AB0303" stroke-linejoin="bevel"/>
<path d="M3077 327L2968 0L2750 228L3077 327Z" fill="#361A1A" stroke="#361A1A" stroke-linejoin="bevel"/>
<path d="M3235 0H2968L3077 327L3235 0Z" fill="#361A1A" stroke="#361A1A" stroke-linejoin="bevel"/>
<path d="M2970 1802L3248 1499L2965 1420L2970 1802Z" fill="#AB0303" stroke="#AB0303" stroke-linejoin="bevel"/>
<path d="M3503 764L3317 563L3244 682L3503 764Z" fill="#B50202" stroke="#B50202" stroke-linejoin="bevel"/>
<path d="M3244 682L3317 563L3024 549L3244 682Z" fill="#AB0303" stroke="#AB0303" stroke-linejoin="bevel"/>
<path d="M3476 970L3169 1044L3259 1274L3476 970Z" fill="#AB0303" stroke="#AB0303" stroke-linejoin="bevel"/>
<path d="M797 240L584 517L742 508L797 240Z" fill="#3D0707" stroke="#3D0707" stroke-linejoin="bevel"/>
<path d="M742 508L584 517L742 690V508Z" fill="#AB0303" stroke="#AB0303" stroke-linejoin="bevel"/>
<path d="M468 793L494 939L742 690L468 793Z" fill="#361A1A" stroke="#361A1A" stroke-linejoin="bevel"/>
<path d="M529 1429L703 1735L827 1580L529 1429Z" fill="#3D0707" stroke="#3D0707" stroke-linejoin="bevel"/>
<path d="M827 1580L703 1735L919 1794L827 1580Z" fill="#9F0D0D" stroke="#9F0D0D" stroke-linejoin="bevel"/>
<path d="M2674 2000H3005L2970 1802L2674 2000Z" fill="#ED0000" stroke="#ED0000" stroke-linejoin="bevel"/>
<path d="M2970 1802L3286 1742L3248 1499L2970 1802Z" fill="#3D0707" stroke="#3D0707" stroke-linejoin="bevel"/>
<path d="M529 1429L827 1580L719 1299L529 1429Z" fill="#ED0000" stroke="#ED0000" stroke-linejoin="bevel"/>
<path d="M919 1794L804 2000H1088L919 1794Z" fill="#7B0707" stroke="#7B0707" stroke-linejoin="bevel"/>
<path d="M997 0H809L797 240L997 0Z" fill="#ED0000" stroke="#ED0000" stroke-linejoin="bevel"/>
<path d="M797 240L469 164L584 517L797 240Z" fill="#AB0303" stroke="#AB0303" stroke-linejoin="bevel"/>
<path d="M584 517L468 793L742 690L584 517Z" fill="#AB0303" stroke="#AB0303" stroke-linejoin="bevel"/>
<path d="M3462 1292L3476 970L3259 1274L3462 1292Z" fill="#ED0000" stroke="#ED0000" stroke-linejoin="bevel"/>
<path d="M430 1266L719 1299L494 939L430 1266Z" fill="#361A1A" stroke="#361A1A" stroke-linejoin="bevel"/>
<path d="M430 1266L529 1429L719 1299L430 1266Z" fill="#B50202" stroke="#B50202" stroke-linejoin="bevel"/>
<path d="M3442 417L3290 211L3317 563L3442 417Z" fill="#AB0303" stroke="#AB0303" stroke-linejoin="bevel"/>
<path d="M3317 563L3290 211L3077 327L3317 563Z" fill="#B50202" stroke="#B50202" stroke-linejoin="bevel"/>
<path d="M3512 1472L3462 1292L3248 1499L3512 1472Z" fill="#B50202" stroke="#B50202" stroke-linejoin="bevel"/>
<path d="M3248 1499L3462 1292L3259 1274L3248 1499Z" fill="#5A0000" stroke="#5A0000" stroke-linejoin="bevel"/>
<path d="M3200 2000L3286 1742L2970 1802L3200 2000Z" fill="#9F0D0D" stroke="#9F0D0D" stroke-linejoin="bevel"/>
<path d="M3734 777L3503 764L3476 970L3734 777Z" fill="#ED0000" stroke="#ED0000" stroke-linejoin="bevel"/>
<path d="M3476 970L3503 764L3244 682L3476 970Z" fill="#361A1A" stroke="#361A1A" stroke-linejoin="bevel"/>
<path d="M266 1217L430 1266L494 939L266 1217Z" fill="#AB0303" stroke="#AB0303" stroke-linejoin="bevel"/>
<path d="M439 2000H804L703 1735L439 2000Z" fill="#AB0303" stroke="#AB0303" stroke-linejoin="bevel"/>
<path d="M437 1743L703 1735L529 1429L437 1743Z" fill="#AB0303" stroke="#AB0303" stroke-linejoin="bevel"/>
<path d="M703 1735L804 2000L919 1794L703 1735Z" fill="#AB0303" stroke="#AB0303" stroke-linejoin="bevel"/>
<path d="M3503 764L3442 417L3317 563L3503 764Z" fill="#5A0000" stroke="#5A0000" stroke-linejoin="bevel"/>
<path d="M3452 0H3235L3290 211L3452 0Z" fill="#361A1A" stroke="#361A1A" stroke-linejoin="bevel"/>
<path d="M3290 211L3235 0L3077 327L3290 211Z" fill="#ED0000" stroke="#ED0000" stroke-linejoin="bevel"/>
<path d="M3286 1742L3512 1472L3248 1499L3286 1742Z" fill="#AB0303" stroke="#AB0303" stroke-linejoin="bevel"/>
<path d="M3005 2000H3200L2970 1802L3005 2000Z" fill="#9F0D0D" stroke="#9F0D0D" stroke-linejoin="bevel"/>
<path d="M3431 1795L3512 1472L3286 1742L3431 1795Z" fill="#9F0D0D" stroke="#9F0D0D" stroke-linejoin="bevel"/>
<path d="M3462 1292L3675 1174L3476 970L3462 1292Z" fill="#B40909" stroke="#B40909" stroke-linejoin="bevel"/>
<path d="M584 517L338 696L468 793L584 517Z" fill="#AB0303" stroke="#AB0303" stroke-linejoin="bevel"/>
<path d="M468 793L180 1059L494 939L468 793Z" fill="#9F0D0D" stroke="#9F0D0D" stroke-linejoin="bevel"/>
<path d="M273 453L338 696L584 517L273 453Z" fill="#3D0707" stroke="#3D0707" stroke-linejoin="bevel"/>
<path d="M3836 279L3436 198L3442 417L3836 279Z" fill="#5A0000" stroke="#5A0000" stroke-linejoin="bevel"/>
<path d="M3442 417L3436 198L3290 211L3442 417Z" fill="#AB0303" stroke="#AB0303" stroke-linejoin="bevel"/>
<path d="M809 0L469 164L797 240L809 0Z" fill="#AB0303" stroke="#AB0303" stroke-linejoin="bevel"/>
<path d="M3200 2000L3431 1795L3286 1742L3200 2000Z" fill="#361A1A" stroke="#361A1A" stroke-linejoin="bevel"/>
<path d="M180 1059L266 1217L494 939L180 1059Z" fill="#7B0707" stroke="#7B0707" stroke-linejoin="bevel"/>
<path d="M430 1266L291 1526L529 1429L430 1266Z" fill="#3D0707" stroke="#3D0707" stroke-linejoin="bevel"/>
<path d="M291 1526L437 1743L529 1429L291 1526Z" fill="#B50202" stroke="#B50202" stroke-linejoin="bevel"/>
<path d="M3512 1472L3675 1174L3462 1292L3512 1472Z" fill="#B40909" stroke="#B40909" stroke-linejoin="bevel"/>
<path d="M3503 764L3693 521L3442 417L3503 764Z" fill="#ED0000" stroke="#ED0000" stroke-linejoin="bevel"/>
<path d="M3756 1549L3675 1174L3512 1472L3756 1549Z" fill="#B40909" stroke="#B40909" stroke-linejoin="bevel"/>
<path d="M469 164L273 453L584 517L469 164Z" fill="#AB0303" stroke="#AB0303" stroke-linejoin="bevel"/>
<path d="M338 696L180 1059L468 793L338 696Z" fill="#361A1A" stroke="#361A1A" stroke-linejoin="bevel"/>
<path d="M3673 0H3452L3436 198L3673 0Z" fill="#9F0D0D" stroke="#9F0D0D" stroke-linejoin="bevel"/>
<path d="M3436 198L3452 0L3290 211L3436 198Z" fill="#AB0303" stroke="#AB0303" stroke-linejoin="bevel"/>
<path d="M809 0H468L469 164L809 0Z" fill="#5A0000" stroke="#5A0000" stroke-linejoin="bevel"/>
<path d="M469 164L173 196L273 453L469 164Z" fill="#361A1A" stroke="#361A1A" stroke-linejoin="bevel"/>
<path d="M266 1217L291 1526L430 1266L266 1217Z" fill="#AB0303" stroke="#AB0303" stroke-linejoin="bevel"/>
<path d="M3815 937L3734 777L3476 970L3815 937Z" fill="#9F0D0D" stroke="#9F0D0D" stroke-linejoin="bevel"/>
<path d="M3734 777L3693 521L3503 764L3734 777Z" fill="#9F0D0D" stroke="#9F0D0D" stroke-linejoin="bevel"/>
<path d="M0 1019L180 1059L0 679V1019Z" fill="#9F0D0D" stroke="#9F0D0D" stroke-linejoin="bevel"/>
<path d="M266 1217L0 1451L291 1526L266 1217Z" fill="#9F0D0D" stroke="#9F0D0D" stroke-linejoin="bevel"/>
<path d="M3675 1174L3815 937L3476 970L3675 1174Z" fill="#AB0303" stroke="#AB0303" stroke-linejoin="bevel"/>
<path d="M4000 477L3836 279L3693 521L4000 477Z" fill="#ED0000" stroke="#ED0000" stroke-linejoin="bevel"/>
<path d="M4000 1032L3815 937L3675 1174L4000 1032Z" fill="#361A1A" stroke="#361A1A" stroke-linejoin="bevel"/>
<path d="M242 1836L439 2000L437 1743L242 1836Z" fill="#AB0303" stroke="#AB0303" stroke-linejoin="bevel"/>
<path d="M437 1743L439 2000L703 1735L437 1743Z" fill="#AB0303" stroke="#AB0303" stroke-linejoin="bevel"/>
<path d="M3519 2000L3668 1704L3431 1795L3519 2000Z" fill="#B50202" stroke="#B50202" stroke-linejoin="bevel"/>
<path d="M3431 1795L3668 1704L3512 1472L3431 1795Z" fill="#7B0707" stroke="#7B0707" stroke-linejoin="bevel"/>
<path d="M3200 2000H3519L3431 1795L3200 2000Z" fill="#361A1A" stroke="#361A1A" stroke-linejoin="bevel"/>
<path d="M4000 1333L3756 1549L4000 1570V1333Z" fill="#5A0000" stroke="#5A0000" stroke-linejoin="bevel"/>
<path d="M3668 1704L3756 1549L3512 1472L3668 1704Z" fill="#AB0303" stroke="#AB0303" stroke-linejoin="bevel"/>
<path d="M291 1526L242 1836L437 1743L291 1526Z" fill="#9F0D0D" stroke="#9F0D0D" stroke-linejoin="bevel"/>
<path d="M0 1767L242 1836L291 1526L0 1767Z" fill="#B50202" stroke="#B50202" stroke-linejoin="bevel"/>
<path d="M243 0L173 196L469 164L243 0Z" fill="#9F0D0D" stroke="#9F0D0D" stroke-linejoin="bevel"/>
<path d="M0 679L180 1059L338 696L0 679Z" fill="#3D0707" stroke="#3D0707" stroke-linejoin="bevel"/>
<path d="M3836 279L3442 417L3693 521L3836 279Z" fill="#3D0707" stroke="#3D0707" stroke-linejoin="bevel"/>
<path d="M3836 279L3673 0L3436 198L3836 279Z" fill="#AB0303" stroke="#AB0303" stroke-linejoin="bevel"/>
<path d="M468 0H243L469 164L468 0Z" fill="#AB0303" stroke="#AB0303" stroke-linejoin="bevel"/>
<path d="M0 679L338 696L0 579V679Z" fill="#9F0D0D" stroke="#9F0D0D" stroke-linejoin="bevel"/>
<path d="M180 1059L0 1285L266 1217L180 1059Z" fill="#B40909" stroke="#B40909" stroke-linejoin="bevel"/>
<path d="M0 579L273 453L0 210V579Z" fill="#361A1A" stroke="#361A1A" stroke-linejoin="bevel"/>
<path d="M0 579L338 696L273 453L0 579Z" fill="#ED0000" stroke="#ED0000" stroke-linejoin="bevel"/>
<path d="M4000 477L3693 521L3734 777L4000 477Z" fill="#7B0707" stroke="#7B0707" stroke-linejoin="bevel"/>
<path d="M0 1019V1285L180 1059L0 1019Z" fill="#5A0000" stroke="#5A0000" stroke-linejoin="bevel"/>
<path d="M0 210L273 453L173 196L0 210Z" fill="#B50202" stroke="#B50202" stroke-linejoin="bevel"/>
<path d="M0 1285V1451L266 1217L0 1285Z" fill="#5A0000" stroke="#5A0000" stroke-linejoin="bevel"/>
<path d="M4000 1333V1032L3675 1174L4000 1333Z" fill="#9F0D0D" stroke="#9F0D0D" stroke-linejoin="bevel"/>
<path d="M3815 937L4000 781L3734 777L3815 937Z" fill="#7B0707" stroke="#7B0707" stroke-linejoin="bevel"/>
<path d="M0 2000H217L242 1836L0 2000Z" fill="#5A0000" stroke="#5A0000" stroke-linejoin="bevel"/>
<path d="M242 1836L217 2000H439L242 1836Z" fill="#7B0707" stroke="#7B0707" stroke-linejoin="bevel"/>
<path d="M4000 1032V781L3815 937L4000 1032Z" fill="#9F0D0D" stroke="#9F0D0D" stroke-linejoin="bevel"/>
<path d="M4000 1570L3756 1549L4000 1817V1570Z" fill="#AB0303" stroke="#AB0303" stroke-linejoin="bevel"/>
<path d="M3756 1549L4000 1333L3675 1174L3756 1549Z" fill="#5A0000" stroke="#5A0000" stroke-linejoin="bevel"/>
<path d="M4000 781V477L3734 777L4000 781Z" fill="#AB0303" stroke="#AB0303" stroke-linejoin="bevel"/>
<path d="M3836 279L4000 0H3673L3836 279Z" fill="#AB0303" stroke="#AB0303" stroke-linejoin="bevel"/>
<path d="M0 0V210L173 196L0 0Z" fill="#9F0D0D" stroke="#9F0D0D" stroke-linejoin="bevel"/>
<path d="M3519 2000H3810L3668 1704L3519 2000Z" fill="#361A1A" stroke="#361A1A" stroke-linejoin="bevel"/>
<path d="M0 1451V1767L291 1526L0 1451Z" fill="#361A1A" stroke="#361A1A" stroke-linejoin="bevel"/>
<path d="M4000 1817L3756 1549L3668 1704L4000 1817Z" fill="#5A0000" stroke="#5A0000" stroke-linejoin="bevel"/>
<path d="M4000 477V270L3836 279L4000 477Z" fill="#9F0D0D" stroke="#9F0D0D" stroke-linejoin="bevel"/>
<path d="M243 0H0L173 196L243 0Z" fill="#7B0707" stroke="#7B0707" stroke-linejoin="bevel"/>
<path d="M3810 2000L4000 1817L3668 1704L3810 2000Z" fill="#B40909" stroke="#B40909" stroke-linejoin="bevel"/>
<path d="M0 1767V2000L242 1836L0 1767Z" fill="#ED0000" stroke="#ED0000" stroke-linejoin="bevel"/>
<path d="M4000 270V0L3836 279L4000 270Z" fill="#AB0303" stroke="#AB0303" stroke-linejoin="bevel"/>
<path d="M3810 2000H4000V1817L3810 2000Z" fill="#9F0D0D" stroke="#9F0D0D" stroke-linejoin="bevel"/>
</g>
<defs>
<clipPath id="clip0_1_5">
<rect width="4000" height="2000" fill="white"/>
</clipPath>
</defs>
</svg>
